<svg id="Inspire_logo" data-name="Inspire logo" xmlns="http://www.w3.org/2000/svg" width="12165" height="5197" viewBox="0 0 12165 5197">
  <metadata><?xpacket begin="﻿" id="W5M0MpCehiHzreSzNTczkc9d"?>
<x:xmpmeta xmlns:x="adobe:ns:meta/" x:xmptk="Adobe XMP Core 5.6-c142 79.160924, 2017/07/13-01:06:39        ">
   <rdf:RDF xmlns:rdf="http://www.w3.org/1999/02/22-rdf-syntax-ns#">
      <rdf:Description rdf:about=""/>
   </rdf:RDF>
</x:xmpmeta>
                                                                                                    
                                                                                                    
                                                                                                    
                                                                                                    
                                                                                                    
                                                                                                    
                                                                                                    
                                                                                                    
                                                                                                    
                                                                                                    
                                                                                                    
                                                                                                    
                                                                                                    
                                                                                                    
                                                                                                    
                                                                                                    
                                                                                                    
                                                                                                    
                                                                                                    
                                                                                                    
                           
<?xpacket end="w"?></metadata>
<defs>
    <style>
      .cls-1 {
        font-size: 0.72px;
        font-family: "Segoe UI";
      }

      .cls-1, .cls-2 {
        fill: #16486c;
      }

      .cls-2 {
        fill-rule: evenodd;
      }
    </style>
  </defs>
  <text id="Technology_Digital_Consulting" data-name="Technology | Digital | Consulting" class="cls-1" transform="translate(6157.29 3687.63) scale(433.684 433.487)">Technology | Digital | Consulting</text>
  <path id="Inspire_Logo-2" data-name="Inspire Logo" class="cls-2" d="M5891.6,3764.95c1.05-60.41,2.14-121.33,2.9-182.2,0.29-13.4-.13-26.3.29-39.59,0.42-13.4,1.3-26.73,1.89-39.5,0.41-11.9,1.38-23.3,1.55-34.73,0.88-38.8.88-77.63,2.39-115.88,1.88-51.44,5.49-102.3,7.46-153.2,1.38-35.44,3.19-70.89,5.99-105.62,0.89-9.84.26-19.35-.03-29.24-0.09-3.43-5.12-6.2-7.76-4.15-6.46,4.53-12.96,8.97-18.87,14.33-61.67,56.6-134.24,92.84-214.4,115-57.67,16.09-116.18,22.12-175.44,21.49a674.262,674.262,0,0,1-92.25-7.16c-39.42-4.86-78.13-13.99-115.05-29.41-18.63-8.13-36.45-17.85-52.47-30.16-24.34-18.82-43.14-41.56-55.8-69.47-5.16-11.14-9.29-22.74-13.58-34.22-3.99-10.77-7.17-21.87-11.49-32.51a145.818,145.818,0,0,0-11.09-20.99c-4.89-7.29-17.08-8.55-23.52-1.97a124.666,124.666,0,0,0-15.28,18.06c-10.19,14.28-19.88,29.11-29.9,43.61-9.35,13.82-18.71,27.82-28.31,41.6a386.891,386.891,0,0,1-53.84,61.42c-45.09,40.29-97.08,66.6-157.05,77.16-30.77,5.41-61.48,5.83-92.21,3.23-16.58-1.68-33.23-4.57-49.16-9.72-51.95-15.55-89.09-48.47-112.65-97.4a227.258,227.258,0,0,1-16.75-46.84c-7.38-32.72-11.89-65.98-12.37-99.58-0.55-56.72,6.58-112.61,16.87-168.2,14.95-79.18,41.05-154.82,71.36-229.08a1125.094,1125.094,0,0,0,39.49-115.14c5.81-19.9,5.67-39.92,3.4-60.18-2.58-23.33-24-43.67-47.56-46.5-6.02-.9-12.37-0.69-18.47-0.61a38.641,38.641,0,0,0-20.08,6.43c-18.43,11.99-36.54,24.43-51.19,41.42-12.31,13.63-25.75,26.72-38.03,40.61-35.2,39.46-66.6,82.11-97.16,125.05-44.34,62.67-85.74,127.46-124.96,193.3-30.92,52.45-61.88,104.69-92.19,157.48q-52.545,91.935-96.73,187.8c-5.49,12.36-11.02,24.3-13.51,37.58-2.88,15.58-12.92,26.39-25.89,34.73a106.987,106.987,0,0,1-36.54,15.58,145.491,145.491,0,0,1-52.49,1.22c-25.68-3.77-43.37-18.31-52.72-42.73-2.79-7.5-4.26-14.96-5.77-22.79-2.18-11.36-3.73-22.62-5.53-33.93-0.78-4.24-5.16-7.88-9.44-8.13-8.71-.8-17.69-1.3-26.45-1.3-22.7-.08-40.79-9.6-54.99-26.81-6.79-8.17-13.06-16.8-19.11-25.39-16.92-23.79-36.54-45.2-57.82-65.27a298.09,298.09,0,0,0-76.34-51.7c-7.17-3.18-14.64-6.07-22.71-6.91-17.44-1.46-33.18,2.1-47.35,12.49-9.23,6.91-18.72,13.48-27.73,20.36-30.53,22.54-60.84,45.45-91.63,67.57-76.89,55.22-158.06,102.93-244.82,141.06a778.16,778.16,0,0,1-179.55,53.37c-42.93,6.87-86.07,9.51-129.36,6.74a439.085,439.085,0,0,1-131.27-28.4,512.254,512.254,0,0,1-67.16-30.96,344.99,344.99,0,0,1-56.1-39.42,226.618,226.618,0,0,1-36.93-41.48c-28.07-41.76-53.23-85.21-71.9-132.17a418.838,418.838,0,0,1-21.39-68.08c-2.05-10.22-3.6-20.57-7.82-30.66-2.09-4.57-2.18-10.23-2.34-15.55-0.27-11.35.08-22.79-.17-34.14-0.27-14.41.33-28.36,6.64-41.39,2.14-4.65,2.79-10.14,4.18-15.33,11.36-44.52,33.56-83.2,64.08-117.1,32.2-35.9,70.08-64.26,112.07-87.6,16.22-8.83,33.18-16.61,49.61-24.96a45.339,45.339,0,0,1,25.68-4.67c40.61,3.37,80.41,11.22,117.71,28,10.44,4.5,19.89,11.42,29.11,18.1,4.26,2.87,7.86,7.16,10.86,11.33,8.94,12.44,10.78,26.08,4.43,40.11-5.7,12.91-12.54,25.19-22.46,35.43a971.952,971.952,0,0,1-75.37,70.53c-35.64,29.95-71.28,60.32-106.95,90.73-20.04,17.1-38.43,36.16-53.54,58.15-8.41,12.49-15.89,25.39-20.82,39.63-11.07,32.22-7.21,62.47,12.58,90.45a233.091,233.091,0,0,0,51.17,53.2c33.83,25.77,70.41,46.84,111.67,58.74,26.99,7.92,54.64,13.15,83.07,13.78,82.04,2.39,156.65-21.36,225.77-63.76a480.518,480.518,0,0,0,59.84-43.48c54.02-44.83,100.04-96.82,141.52-153.21,23.04-31.17,43.96-63.72,64.21-96.85a142.907,142.907,0,0,0,8.8-16.39,30.639,30.639,0,0,0-.69-25.55,88.635,88.635,0,0,0-6.31-11.44c-24.67-40.97-48.25-82.46-74.85-121.84-17.19-25.52-30.97-53.19-44.57-80.98A1541.4,1541.4,0,0,1,3185,2167.53a856.277,856.277,0,0,1-19.92-130.6c-2.61-34.18-3.87-68.66-1.9-103.04,1.99-36.76,3.31-73.92,7.57-110.64,6.64-56.99,15.4-113.55,27.69-169.52,16.91-77.52,40.39-153.33,72.07-226.35a699.15,699.15,0,0,1,52-97.88,434.342,434.342,0,0,1,78.17-92.88c29.83-26.69,64.11-46.21,103.29-56.97a238.981,238.981,0,0,1,59.84-8.53c24.13-.44,47.32,3.56,70.17,10.24,58.25,17.16,111.7,43.63,158.97,81.74,49.1,40.11,87.97,88.88,118.36,144.47,26.75,48.99,45.07,101.21,57.96,155.42,10.86,45.56,17.63,91.64,22.33,138.14,4.88,47.57,4.55,95.27,4.8,142.82,0.21,43.27-2.87,86.34-6.36,129.41-1.46,18.45-3.47,36.72-5.76,55.09-10.98,91.11-29.01,180.99-52.57,269.43-7.95,30-16.67,59.51-25.85,88.94-9.54,30.42-22.32,59.41-36.37,87.86q-73.425,149.73-146.78,299.24c-6.35,12.61-13.44,24.8-20.04,37.07a60.188,60.188,0,0,0-4.95,12.19c-0.73,2.39.17,5.37,1.15,7.75a21.372,21.372,0,0,0,4.62,6.25c13.85,14.87,27.73,29.49,41.63,44.4,23.6,25.06,47.02,50.19,70.83,75.03,24.49,25.35,49.33,50.4,74.15,75.5,2.32,2.42,5.66,4.14,8.51,5.98,2.57,1.77,8.32-.5,8.7-3.51,1.68-11.19,3.79-22.46,5.07-34.1,2.24-20.95,4.3-41.98,6.44-62.97,5.36-47.3,10.14-94.68,16.32-141.6,7.59-57.81,14.68-115.44,26.19-172.5,13.77-69.37,31.08-137.62,57.35-203.3,11.42-28.57,25.16-56.2,43.5-81.26,6.27-8.52,12.87-16.8,19.96-24.73,11.67-12.61,25.63-22.06,42.07-26.48,15.15-4.21,30.9-7.33,46.49-10.2,6.88-1.3,14.09-1.21,21.03-.9,14.21,0.99,25.22,7.54,32.03,20.36,7.17,13.26,10.61,27.99,11.63,42.85a383.153,383.153,0,0,1-3.29,84.48c-6.14,40.2-16.58,79.29-26.24,118.58-9.88,40.28-19.67,80.52-30.09,120.68a206.979,206.979,0,0,0-6.22,54.83c0.21,11.44.12,22.84,0.86,34.52,0.33,4.99,2.01,10.15,3.25,15.34,0.48,2.22,3.92,4.48,5.93,4.02,1.59-.59,3.86-0.92,4.55-2.18a200.108,200.108,0,0,0,11.15-17.89c18.59-32.09,36.45-64.45,55.3-96.33,45.09-75.72,95.24-148.18,152.33-215.83a818.445,818.445,0,0,1,93.2-93.64c29.18-24.38,60.19-46.04,96.03-60.07,24.91-9.72,50.31-15.61,77.19-15.4,24.57,0.13,47.14,6.67,68.9,16.99a208.546,208.546,0,0,1,37.67,24.42c28.89,23.63,53.83,50.57,73.27,82.57a295.937,295.937,0,0,1,35.55,87.9c5.03,22.35,7.99,45.01,7.78,68.18-0.21,19.38-.13,38.81-1.55,58.17-2.62,35.17-9.79,69.75-18.56,103.75a1142.652,1142.652,0,0,1-39.36,120.48,642.327,642.327,0,0,0-35.98,132.64c-2.82,18.22-4.25,36.7-5.65,55.09-1.56,18.47.25,37.16,4.29,55.17a102.806,102.806,0,0,0,7.59,22.25c4.13,8.42,11.51,13.15,21.3,13.74,9.91,0.58,19.09-.76,28.3-5.16a182.891,182.891,0,0,0,43.75-29.03,487.375,487.375,0,0,0,47.9-49.56,1594.162,1594.162,0,0,0,119-158.44c66.98-102.68,133.26-205.74,199.9-308.33q41.73-64.485,83.28-129.1c16.65-26.03,32.7-52.07,49.33-78.19a307.547,307.547,0,0,1,54.44-64.39,81.666,81.666,0,0,1,27.12-16.28,53.037,53.037,0,0,1,20.65-2.79c8.93,0.74,15.68,4.59,19.02,12.49,3.1,7.16,5.97,14.89,7.27,22.43,2.79,17.56,5.13,34.88,6.64,52.56,1.72,20.05,2.62,40.45,3.9,60.53,5.29,80.9,38.26,149.29,94.17,207.38,6.68,6.99,13.77,13.72,20.61,20.63,54.64,55.01,87.05,121.3,96.88,198.13,4.59,34.52,1.72,68.62-7,102.22-6.43,24.89-15.74,48.64-26.92,71.89-3.12,6.41-9.01,13.24-4.63,22.04,7.42,4.65,15.58,2.09,23.1.79,34.99-5.86,68.28-17.17,98.71-36.11a321.644,321.644,0,0,0,89.39-81.27c8.68-11.48,14.89-23.71,16.86-38.08,4.99-34.23,10.64-67.95,16.05-101.8,6.21-40.14,12.71-80.25,19.24-120.3,9.1-57.37,17.83-114.76,28.01-171.99,8.85-51.34,18.49-102.22,28.81-153.27,10.93-52.68,22.42-105.03,35.25-157.43,17.78-74.37,36.85-148.79,61.55-221.5,12.79-37.57,26.92-74.44,43.56-110.51,10.81-23.33,23.39-45.56,38.82-65.94,9.73-12.99,20.8-24.32,35.64-30.54,25.41-10.81,50.1-7.94,73.74,5.49,7.93,4.38,13.42,11.46,17.24,19.65a71.024,71.024,0,0,1,6.66,25.32c1.26,14.05,1.64,28.13-.37,42.12-5.54,38.53-11.37,76.65-17.24,115.15-6.12,39.1-12.4,78.24-18.53,117.4-4.86,32.18-10.02,64.35-14.34,96.57-4.56,33.24-8.63,66.53-12.66,99.79-4.23,33.98-8.26,68.24-12.12,102.26-1.5,13.95-2.38,27.96-3.47,42.08-1.3,17.68-2.52,35.36-3.32,52.77-0.33,3.51,1.14,6.83,2.23,9.94,0.75,2.16,5.15,3.84,6.79,2.84,3.77-2.02,7.92-3.82,11.15-6.6,9.52-8.03,18.49-16.34,27.76-24.62,46.87-41.78,96.93-79.15,151.72-110.05,46.41-26.24,94.5-47.4,146.74-59.2,41.8-9.57,83.85-11.33,125.86-2.53a229.089,229.089,0,0,1,95.47,43.38c31.31,23.71,56.85,52.81,77.93,85.55,15.98,24.69,28.72,50.82,39.79,77.73,5.2,12.99,9.48,26.67,10.61,40.66,2.6,24.67,5.99,48.99,5.49,73.84-1.01,99.68-23.19,193.83-71.44,281.43-21.18,38.84-46.79,74.45-75.63,108.34-23.15,26.77-48.76,50.78-75.39,74.03-11.23,9.71-22.68,19.56-33.83,29.37-2.52,2.3-4.11,5.48-6.16,8.75-0.97,1.34.92,6.08,2.76,6.28,3.57,0.38,6.92,1.05,10.49,1.09,16.93,0.21,33.41-2.85,49.97-5.32,41.05-6.2,81.25-15.5,119.61-31.79,39.54-16.64,75.3-38.63,106.03-68.42,27.84-27.27,55.8-54.08,83.52-81.44,33.24-32.63,66.36-65.81,99.32-98.61,4.57-4.65,9.01-8.85,13.12-13.45a34.214,34.214,0,0,0,7.63-16.55c1.72-12.32,3.86-24.22,5.41-36.53,11.78-91.35,30.4-180.83,59.74-267.78,14.63-43.76,32.24-85.97,56.94-124.97,12.7-20.07,26.58-39.42,44.06-55.89a204.674,204.674,0,0,1,31.57-23.94c31.86-19.39,66.03-23.33,102.05-15.75,13.62,2.83,23.85,10.47,30.48,23.04,5.82,11.02,10.1,22.56,11.65,34.88a323.088,323.088,0,0,1,3.48,42.04,535.089,535.089,0,0,1-16.27,133.53c-14.38,58.32-28.51,116.57-40.5,175.24-10.65,51.78-20.67,103.56-30.64,155.43-6.46,34.68-12.96,69.37-18.87,104.1-3.48,20.91-6.16,41.94-8.34,62.88a134.165,134.165,0,0,0,.16,29.03c2.14,20.74,10.65,38.93,24.53,54.51,3.99,4.69,9.31,8.17,14.38,11.52a21,21,0,0,0,9.81,3.68c14.05,1.93,28.05,1.89,41.84-3.22,20.67-7.37,39.5-19.06,56.22-33.77,31.91-27.9,62.89-56.43,92.62-86.72,14.21-14.32,28.09-29.28,42.76-43.4,17.36-16.8,25.41-37.62,27.84-61.16,3.61-34.02,6.75-68.33,10.52-102.3,9.48-80.65,21.93-160.83,41.43-239.51,10.39-41.26,23.14-81.29,39.4-120.42,10.65-25.47,23.57-49.46,37.86-72.92,10.94-18.37,25.49-33.55,42.47-46.42a110.544,110.544,0,0,1,32.66-16.98c13.09-4.21,25.87-4.86,39.03-1.26,26.17,6.83,48.68,20.63,68.14,38.96,17.22,16.13,23.22,36.97,18.94,60.35-2.26,12.19-5.19,24.34-8.04,36.13-15.69,65.92-31.7,132.03-47.51,197.97-2.18,8.5-4.23,16.99-5.91,25.58-0.67,2.57.17,5.27,0.42,7.93,0.29,3,5.7,5.28,8.51,3.98,5.83-2.78,9.48-7.98,13.5-12.48,19.75-22.48,39.37-45.04,58.99-67.91,49.05-56.45,97.94-113.3,147.32-169.71,42.26-48.85,93.41-85.67,152.57-111.23a210.879,210.879,0,0,1,55.84-15.91,99.773,99.773,0,0,1,39.25,2.53c18.4,5.07,31.9,16.21,37.98,33.68,12.2,34.4,13.67,69.14-.92,103.21-2.81,6.51-6.12,12.92-9.31,19.03-20.71,40.12-39.16,80.92-57.65,122.06-12.49,27.34-20.96,56.03-27,85.51a119,119,0,0,0-1.68,31.6c1.31,15.44,7.09,28.83,18.87,39.6,4.45,4.16,9.02,8.35,14.26,11.62a133.472,133.472,0,0,0,53.91,20.49c15.06,2.42,18.37.54,25.66-12.32,3.06-5.36,6.04-10.81,8.85-16.05a1093.381,1093.381,0,0,1,75.17-121.32,1014.132,1014.132,0,0,1,125.78-146.08c34.58-33.24,71.6-62.97,111.89-88.67,55.81-35.09,115.85-59.97,180.53-72.83a481.349,481.349,0,0,1,113.08-8.67c64.18,2.17,125.23,18.35,185.1,40.65,21.5,8.15,35.34,22.14,44.35,42.31,9.9,22.86,18.78,45.69,25.66,69.4a265.106,265.106,0,0,1,9.73,67.95c0.63,53.21-12.62,103.02-43.35,147.07-18.11,26.33-40.34,49.29-65.03,69.27-42.6,34.81-89.3,62.93-139.11,86.05-66.49,30.58-133.19,60.58-199.85,90.99-35.18,16.26-70.02,33.48-104.06,51.82-15.81,8.47-29.68,19.36-42.93,30.8a75.329,75.329,0,0,0-16.35,20.69c-8.68,15.42-7.22,30.54,2.26,44.87a88.359,88.359,0,0,0,13.54,16.08c28.97,27.03,62.05,46.05,101.29,54.34,40.79,8.51,82.09,10.89,123.68,10.43a498.769,498.769,0,0,0,86.53-10.05,451.6,451.6,0,0,0,104.73-36.16,507.679,507.679,0,0,0,85.32-52.82q93.51-71.445,187.28-142.65c7.76-5.74,16.06-10.89,24.06-16.34,1.6-.88,5.88,1.26,6.25,3.19,0.38,2.51,1.43,5.19,1.43,7.75,0.17,20.44.21,40.59,0.21,60.95a32.889,32.889,0,0,1-4.82,17.43,561.6,561.6,0,0,1-166.61,171.6c-61.09,40.09-127.54,67.44-198.69,83.7a868.149,868.149,0,0,1-114.91,17.42c-32.75,2.94-65.24,2.69-97.9,2.77-8.76.04-17.57-1.42-26.45-1.89-7.8-.45-15.73-1.09-23.56-1.5-8.85-1.13-17.7-1.39-26.59-2.06-19.41-2.22-37.98-6.16-56.18-13.78-72.82-29.16-137.89-70.63-194.36-125.51a402.578,402.578,0,0,1-57.4-68.79c-26.2-39.88-42.47-83.29-48.17-130.46-1.68-13.95-1.21-28.11-1.63-42.18-0.09-5.32-.13-10.64-0.38-15.8-0.25-4.77-4.66-7.75-9.35-6.66-5.24.8-10.32,1.89-15.51,3.14-63.65,15.84-118.57-1.25-166.95-43.11-37.82-32.55-66.83-72.58-90.39-116.21-8.51-15.48-15.89-31.61-23.89-47.27-2.82-5.49-5.75-10.85-8.85-16.21-2.39-3.48-8.85-3.25-11.32.64-3.19,5.03-6.59,10.31-9.48,15.76-26.45,48.85-53.03,97.59-79.07,146.62q-36.345,69-71.57,138.75c-35.93,70.59-68.88,142.73-96.13,217.51-8.34,23.09-15.26,47.01-22.81,70.26-2.3,6.53-4.19,13.61-6.91,19.9a9.622,9.622,0,0,1-6.17,4.69,38.969,38.969,0,0,1-10.27,1.21q-84.9.135-169.29,0a88.615,88.615,0,0,1-10.57-1.04c-2.97-.3-6.16-4.36-6.33-7.54-0.5-6.04-.8-12.15-0.8-18.1-0.08-19.44,0-38.88-.08-58.36,0-7.29-.08-14.12-0.34-21.32-0.58-7.79-6.28-11.15-12.57-7a184.911,184.911,0,0,0-17.95,11.31c-37.85,23.97-76.72,46.51-118.44,64.43a405.585,405.585,0,0,1-109.42,28.91c-26.45,3.14-52.7,2.89-78.99-3.22-41.92-10.15-76.26-31.47-103.34-64.65-20.46-24.88-34.63-53.12-46.24-82.9-11.95-30.54-19.67-61.96-25.91-94.06-1.81-10.55-3.32-20.9-5.29-31.46-0.46-2.55-1.72-4.69-2.85-7.24-1.17-2.64-7.08-4.03-9.05-1.93a50.541,50.541,0,0,0-7.22,7.41c-11.94,15.42-23.22,31.13-35.47,46.21-50.18,61.92-106.11,117.85-172.31,162.68-56.72,38.66-117.6,68.36-184.63,83.36a478.128,478.128,0,0,1-59.71,10.01c-19.41,1.51-38.78,3.86-58.19,2.64-35.05-2.85-70.02-7.12-104.35-16.08a555.218,555.218,0,0,1-159.27-69.54c-9.1-5.71-17.82-11.53-26.5-17.39-51.78-35.36-85.61-83.41-102.72-143.28-10.31-36.95-5.36-71.55,18.62-102.63,5.36-7,10.73-14.12,17.44-19.69,15-12.41,30.52-23.97,45.99-35.4,4.24-3.15,9.31-5.24,14.05-7.55,9.34-4.23,19.07-4.23,28.55-1,21.58,6.74,39.24,19.9,52.57,38.12,8.89,11.9,11.57,25.55,9.73,40.22a92.08,92.08,0,0,1-9.19,30.04c-5.78,11.98-12.11,23.54-17.94,35.56a106.432,106.432,0,0,0-11.28,53.59,90.175,90.175,0,0,0,5.79,28.53,38.18,38.18,0,0,0,8,13.32c9.78,10.89,21.81,14.62,35.85,10.47,16.39-4.65,30.52-13.66,43.77-24.34,11.58-9.39,23.06-18.89,34.3-28.82,38.07-33.22,72.4-69.58,101.54-111.02,33.62-47.97,59.91-99.45,75.59-156.3,7.25-26.48,11.78-53.46,12.03-80.88,0.26-52.93-12.16-103-39.28-148.99-16.4-27.59-36.35-51.95-58.65-74.51a139.569,139.569,0,0,0-20.72-16.61,48.709,48.709,0,0,0-29.64-9.3c-7.25.08-14.34,0-21.38-.17-37.06-1.25-71.4,8.88-103.72,26.46a260.593,260.593,0,0,0-55.84,39.94A518.567,518.567,0,0,0,6314,2578.92a839.041,839.041,0,0,0-62.59,119.44c-10.02,23.23-21.18,46.4-28.59,70.78a304.981,304.981,0,0,0-9.19,35.9c-7.42,41.61-15.76,83.21-23.43,124.85q-15.03,81.81-29.31,163.96c-8.22,47.68-16.77,95.36-24.11,143.16-6.83,44.4-12.41,89.02-18.28,133.51-4.4,33.3-8.97,66.57-12.78,99.79-3.02,26.06-5.5,52.07-8.1,78.72-2.81,29.99-5.53,59.44-8.17,89.4-0.59,8.09-.97,16.04-1.51,23.96-1.63,25.47-3.77,50.9-5.2,76.29a1866.937,1866.937,0,0,0,.55,200.88c0.75,16.71,4.52,33.26,3.77,50.06-0.25,8.71-.34,17.39-0.72,26.06-0.24,5.95-4.02,9.59-10.56,9.93-4.36.17-8.76,0.25-13.08,0.25q-75.4.06-150.89,0c-5.36,0-10.73-.25-16.01-0.59-4.36-.29-7.67-4.4-7.93-9.26a35.478,35.478,0,0,1-.54-4.73c1-64.43,1.71-129.2,2.85-193.51,0.5-17.38,1.47-34.81,2.39-52.82h-0.97ZM3720.7,1598.89c-0.13-41.52-2.12-86.34-9.79-130.74-4.34-25.88-10.36-51.7-19.75-76.67-10.23-27.23-23.96-52.89-44.06-74.38-18.53-19.78-40.57-33.6-67.27-39.99-10.73-2.58-21.03-.98-30.82,3.6a71.329,71.329,0,0,0-11.3,6.87c-63.45,43.24-115.73,97.3-156.12,162.63-31.22,50.76-53.29,105.2-68.49,162.55-17.57,66.88-24,135.21-24.82,203.9a1124.922,1124.922,0,0,0,7.74,137.19c6.87,60.35,17.98,120.03,31.25,179.18,18.8,82.49,43.63,163.28,72.26,242.86,24.21,67.34,51.94,132.99,82.26,197.5a122.187,122.187,0,0,0,9.26,15.82c1.64,2.76,7.42,2.28,8.77-.71,2.78-6.58,5.61-12.84,7.81-19.57,18.85-58.61,38.16-117.19,56.37-176.32,30.69-99.17,58.8-198.96,83.54-300.15,17.04-70.02,32.53-140.64,44.25-211.88q9.495-58.62,17-117.51c6.37-53.54,10.69-106.99,11.91-164.18m5459.35,911.88c0.25-43.89-11.37-80.76-30.48-114.94-2.98-5.36-7.13-10.39-10.99-14.89a18.278,18.278,0,0,0-14.08-6.12,70.418,70.418,0,0,0-13.21.75c-13.84,2.98-27.67,6.01-41.13,9.83a287.564,287.564,0,0,0-92.57,44.45c-36.98,26.73-66.16,60.45-88.5,100.25-26.29,46.29-43.52,96.1-54.38,148.17-8.09,39.01-10.44,78.72-12.66,118.18-0.55,7.97-.63,15.76,2.18,23.51,1.13,2.85,5.2,5.95,8.22,5.65,2.59-.25,5.36-0.25,7.79-1.17,60.46-22.29,119.62-47.68,174.37-82.11a617.2,617.2,0,0,0,74.25-54.92c25.45-22.23,47.04-47.74,63.48-77.51,17.6-32.08,28.34-66.14,27.71-99.13M5533.9,2799.14c-0.99-43.28-7.82-89.28-22.33-134-4.8-14.14-10.65-28-16.83-41.64a201.937,201.937,0,0,0-33.39-50.51c-4.68-5.36-9.67-10.49-16.31-13.42a24.849,24.849,0,0,0-17.94-1.49c-6.96,1.97-12.85,5.66-18.43,9.99-12.58,9.79-23.44,21.45-33.23,34.1-33.54,43.51-59.28,91.37-82.99,140.87a15.179,15.179,0,0,0-1.67,4.86c-0.91,3.77-.13,7.12,2.58,9.68,5.89,5.41,11.88,10.6,17.77,15.62,13.02,11.65,22.07,25.43,26.66,41.81,5.25,18.9,8.28,37.71,5.79,57.61a276.626,276.626,0,0,1-18.49,68.62c-3.75,9.84-8.59,19.23-15.68,27.06-18.68,21.41-19.83,46.34-14.08,72.39a68.57,68.57,0,0,0,15.84,30.04c15.98,17.76,37.73,25.3,62.3,15.8a155.128,155.128,0,0,0,43.27-25.14c37.23-30.79,66.49-68.12,86.2-112.15,20.71-46.67,29.97-95.6,30.96-150.1M7513.84,1702.42c72.25,0,130.82,57.31,130.82,128.01s-58.57,128.01-130.82,128.01-130.83-57.31-130.83-128.01S7441.58,1702.42,7513.84,1702.42Z"/>
</svg>
